<svg width="16" height="21" viewBox="0 0 16 21" fill="none" xmlns="http://www.w3.org/2000/svg">
<path d="M9.2256 14.5186C10.0931 14.5188 10.7968 15.2223 10.7969 16.0898C10.7968 16.9573 10.093 17.6609 9.2256 17.6611C8.35808 17.6609 7.65443 16.9573 7.65431 16.0898C7.65441 15.2222 8.358 14.5188 9.2256 14.5186Z" fill="#D9D9D9"/>
<path d="M6.82033 12.5557C7.34793 12.5557 7.77622 12.9842 7.77638 13.5117C7.77618 14.0393 7.34793 14.4668 6.82033 14.4668C6.29297 14.4666 5.86632 14.0391 5.86622 13.5117C5.86639 12.9843 6.29297 12.5559 6.82033 12.5557Z" fill="#D9D9D9"/>
<path fill-rule="evenodd" clip-rule="evenodd" d="M10.4805 0C10.4932 6.57628e-05 11.3074 0.00790012 11.3076 1.03418C11.3075 1.60296 11.0581 2.08532 10.833 2.40332C10.6331 2.68579 10.4763 3.01052 10.4688 3.35645L10.3623 8.34473C10.3511 8.87171 10.5055 9.38925 10.8047 9.82324L15.2588 16.2793C16.4217 17.9652 15.2149 20.2643 13.167 20.2646H2.54591C0.505212 20.2646 -0.70325 17.9803 0.44435 16.293L4.88087 9.77051C5.1536 9.36944 5.30514 8.89705 5.31544 8.41211L5.42189 3.4248C5.42995 3.03946 5.25274 2.67468 5.02052 2.36719C4.78043 2.04939 4.5255 1.58205 4.5254 1.03418C4.52566 0.01229 5.41316 0.000137078 5.43458 0H10.4805ZM5.97267 11.084C5.632 11.0841 5.31437 11.2556 5.12697 11.54L1.68068 16.7773C1.01568 17.7879 1.74051 19.1338 2.95021 19.1338H12.8975C14.1099 19.1335 14.8345 17.7825 14.1641 16.7725L10.6836 11.5361C10.4958 11.2538 10.1789 11.0841 9.83986 11.084H5.97267Z" fill="#D9D9D9"/>
</svg>
