<svg width="20" height="20" viewBox="0 0 20 20" fill="none" xmlns="http://www.w3.org/2000/svg">
<path fill-rule="evenodd" clip-rule="evenodd" d="M14.0285 0C15.5206 5.52107e-05 16.9203 0.578387 17.9719 1.62891C19.0235 2.67981 19.6027 4.07944 19.6027 5.56934H19.6008C19.6007 7.06029 19.0213 8.45896 17.9699 9.50977L15.5568 11.9219C14.9125 12.5645 14.1178 13.0429 13.257 13.3066L13.2141 13.3213L13.1975 13.3633C12.917 14.103 12.4908 14.7616 11.9299 15.3223L9.5168 17.7344C8.46522 18.7851 7.06419 19.3632 5.57344 19.3633C4.08254 19.3633 2.68168 18.7853 1.63008 17.7344C-0.543438 15.5623 -0.54328 12.027 1.63008 9.85352L4.04316 7.44141C4.69006 6.79501 5.46296 6.33162 6.33906 6.06152L6.38301 6.04883L6.39961 6.00684C6.68018 5.26585 7.1076 4.60415 7.67109 4.04102L10.0842 1.62891C11.1358 0.57813 12.5363 0 14.0285 0ZM14.0305 2.40137C13.1814 2.40148 12.3844 2.7314 11.7863 3.3291L9.37324 5.74023C8.72131 6.39037 8.38714 7.29433 8.45625 8.21973C8.46134 8.27085 8.46549 8.32094 8.47188 8.37207C8.55906 9.08238 8.87125 9.72391 9.37324 10.2256C9.72155 10.5737 10.1047 10.7927 10.5695 10.9463C10.5938 11.0858 10.6066 11.2281 10.6066 11.3701C10.6066 12.0088 10.3602 12.608 9.90938 13.0586L9.75996 13.207C8.9545 12.9318 8.28212 12.5285 7.675 11.9219C6.8681 11.1168 6.33508 10.0999 6.13398 8.98242L6.10566 8.82715L3.33418 11.5508C2.09697 12.7872 2.09703 14.7988 3.33418 16.0352C3.95288 16.6535 4.76492 16.9629 5.57832 16.9629C6.39158 16.9629 7.20379 16.6534 7.82246 16.0352L10.2355 13.624C11.4728 12.3875 11.4728 10.3752 10.2355 9.13867C9.9051 8.80858 9.51187 8.56134 9.06758 8.40137C9.04201 8.25557 9.02852 8.10945 9.02852 7.96875C9.02861 7.2752 9.30422 6.61616 9.80488 6.11328C10.6117 6.38976 11.3279 6.8364 11.9338 7.44043C12.7382 8.24433 13.2714 9.26086 13.4738 10.3809L13.5021 10.5371L16.2736 7.81152C17.5109 6.57512 17.5109 4.56267 16.2736 3.32617L16.2756 3.3291C15.6774 2.73 14.8797 2.40137 14.0305 2.40137Z" fill="#D9D9D9"/>
</svg>
