<svg width="19" height="20" viewBox="0 0 19 20" fill="none" xmlns="http://www.w3.org/2000/svg">
<path fill-rule="evenodd" clip-rule="evenodd" d="M6.96153 5.43411C9.53491 0.903081 14.4193 -0.233826 17.0475 0.0376218C17.466 0.0796288 17.8123 0.378186 17.9234 0.784692C18.6058 3.34189 18.2488 8.34314 14.1852 11.5991C14.0674 11.6944 13.9388 11.7915 13.8033 11.8882L14.0357 14.8169C14.1073 15.7211 13.6975 16.5996 12.9547 17.1206L9.95372 19.2388C9.70292 19.4162 9.3753 19.4458 9.0963 19.314C8.81748 19.182 8.63153 18.9136 8.60704 18.604L8.3043 14.7886C7.81664 15.0027 7.39036 15.18 7.06798 15.313C6.67972 15.4728 6.23694 15.3963 5.91466 15.1245H5.91759L4.73106 14.1118C4.40486 13.8334 4.26309 13.4041 4.36583 12.9878C4.44743 12.6625 4.55772 12.2375 4.69102 11.7505L0.926374 12.0493C0.620476 12.0735 0.323229 11.932 0.14903 11.6773C-0.0249999 11.4224 -0.0480734 11.0946 0.0875067 10.8189L1.70567 7.52102C2.10647 6.70472 2.90539 6.16108 3.80919 6.08938L6.7379 5.85696C6.81196 5.70793 6.88626 5.56895 6.96153 5.43411ZM13.1715 3.9136C12.7942 3.94358 12.4444 4.12268 12.1988 4.41067C11.9531 4.69883 11.8311 5.07307 11.8609 5.45071C11.8908 5.82821 12.0699 6.17854 12.358 6.42434C12.6459 6.67017 13.0197 6.79107 13.3971 6.76125C13.7744 6.73127 14.1249 6.55317 14.3707 6.26516C14.6164 5.97703 14.7374 5.60273 14.7076 5.22512C14.6776 4.84752 14.4996 4.49641 14.2115 4.25051C13.9235 4.00475 13.5489 3.8837 13.1715 3.9136Z" fill="#D9D9D9"/>
<path d="M2.9088 14.1948C3.16678 13.9603 3.56591 13.9797 3.8004 14.2378C4.03476 14.4957 4.26265 14.6344 4.00548 14.8687C3.53881 15.2929 3.44517 15.7238 3.49864 16.399C3.50913 16.5305 3.53133 16.6583 3.56407 16.7808C3.69003 16.7939 3.81924 16.7961 3.95079 16.7857C4.62563 16.7322 4.9669 16.4949 5.31212 15.9673C5.50302 15.6754 5.70499 15.9208 5.99669 16.1118C6.28809 16.3028 6.36985 16.694 6.1793 16.9859C5.6293 17.8266 4.70747 18.4148 3.62657 18.5005C3.24073 18.5311 2.86368 18.4953 2.50743 18.4019C2.32113 18.3531 2.16706 18.2217 2.08946 18.0454C1.94126 17.7083 1.84665 17.3414 1.81602 16.9556C1.73032 15.8741 2.1655 14.8706 2.9088 14.1948Z" fill="#D9D9D9"/>
</svg>
