<svg width="265" height="32" viewBox="0 0 265 32" fill="none" xmlns="http://www.w3.org/2000/svg">
<path d="M49.7397 9.49987C50.9607 10.7202 50.9607 12.7061 49.7397 13.9264L47.0045 16.6159L46.9767 16.4618C46.777 15.3564 46.2512 14.3534 45.4574 13.5601C44.8596 12.9638 44.153 12.5229 43.3567 12.25C42.8625 12.7465 42.5907 13.3971 42.5907 14.0818C42.5907 14.2207 42.6034 14.3648 42.6287 14.5088C43.0672 14.6667 43.4553 14.9105 43.7814 15.2364C45.0024 16.4568 45.0024 18.4426 43.7814 19.663L41.4001 22.043C40.7896 22.6531 39.9882 22.9576 39.1856 22.9576C38.383 22.9576 37.5816 22.6531 36.9711 22.043C35.7501 20.8227 35.7501 18.8368 36.9711 17.6164L39.7064 14.9282L39.7342 15.0823C39.9326 16.1851 40.4584 17.1882 41.2547 17.9828C41.8538 18.5816 42.5174 18.9795 43.3125 19.2511L43.4591 19.1046C43.904 18.6599 44.1479 18.0687 44.1479 17.4383C44.1479 17.2981 44.1353 17.1579 44.1113 17.0202C43.6525 16.8686 43.2745 16.6526 42.9307 16.309C42.4353 15.8137 42.1269 15.1808 42.0409 14.4797C42.0346 14.4292 42.0308 14.3799 42.0257 14.3294C41.9575 13.416 42.2874 12.5242 42.9307 11.8824L45.3121 9.50239C45.9023 8.91244 46.6885 8.58652 47.5265 8.58652C48.3645 8.58652 49.1507 8.91118 49.741 9.50239L49.7397 9.49987ZM62.1747 15.791C62.1747 24.4988 55.0863 31.582 46.3751 31.582H15.7996C7.08834 31.582 0 24.4988 0 15.791C0 7.08321 7.08834 0 15.7996 0H46.3751C55.0876 0 62.1747 7.08448 62.1747 15.791ZM30.449 23.7105C30.698 23.4086 29.5478 22.5584 29.3127 22.2464C28.8349 21.7284 28.8324 20.9831 28.5101 20.378C27.7214 18.5513 26.8151 16.7385 25.5474 15.1922C24.2076 13.5007 22.5543 12.101 21.102 10.513C20.0238 9.40512 19.7356 7.82728 18.7839 6.63601C17.4719 4.6994 13.3235 4.17135 12.7155 6.90635C12.7181 6.99226 12.6915 7.04658 12.6169 7.1009C12.2807 7.34471 11.9812 7.6239 11.7296 7.96119C11.1141 8.8177 11.0193 10.2705 11.7878 11.0398C11.8131 10.6343 11.827 10.2515 12.148 9.96097C12.7421 10.4701 13.6395 10.6507 14.3284 10.2705C15.8502 12.442 15.471 15.4461 16.6793 17.7857C17.013 18.339 17.3493 18.9037 17.7777 19.3888C18.1253 19.9295 19.3261 20.5675 19.3969 21.0677C19.4095 21.9268 19.3084 22.8654 19.8721 23.5842C20.1376 24.1223 19.4854 24.663 18.9595 24.5961C18.277 24.6896 17.444 24.1375 16.8462 24.4773C16.6351 24.706 16.2218 24.4533 16.0398 24.7704C15.9766 24.9346 15.6353 25.1658 15.8388 25.3237C16.0651 25.1519 16.2749 24.9725 16.5795 25.0749C16.534 25.3225 16.7299 25.3578 16.8854 25.4298C16.8803 25.5979 16.7817 25.7697 16.9107 25.9124C17.0611 25.7608 17.1508 25.5461 17.3897 25.4829C18.1835 26.5403 18.9911 24.4129 20.7089 25.3705C20.36 25.3528 20.0504 25.397 19.8153 25.6838C19.7571 25.7482 19.7078 25.824 19.8102 25.9074C20.7367 25.3098 20.7316 26.112 21.3333 25.8657C21.7959 25.6244 22.256 25.3225 22.8058 25.4084C22.2712 25.5625 22.2497 25.992 21.9362 26.3546C21.8831 26.4101 21.8578 26.4733 21.9198 26.5655C23.0295 26.472 23.1205 26.1032 24.0167 25.6509C24.6853 25.2429 25.3514 26.232 25.9303 25.6686C26.058 25.5461 26.2324 25.5877 26.3904 25.5713C26.1882 24.4937 23.9649 25.7684 24.0003 24.3232C24.7157 23.8368 24.5514 22.9058 24.5994 22.1541C25.4222 22.6102 26.3373 22.8755 27.1438 23.3113C27.5508 23.9682 28.1891 24.8361 29.0397 24.7792C29.0625 24.7136 29.0827 24.6554 29.1067 24.5885C29.3646 24.6327 29.6957 24.8032 29.8373 24.4773C30.2228 24.8803 30.789 24.8601 31.2934 24.7565C31.6662 24.4533 30.5919 24.0213 30.4478 23.7092L30.449 23.7105ZM53.0248 11.7131C53.0248 10.2427 52.4535 8.86191 51.4158 7.82476C50.3781 6.78761 48.9965 6.2166 47.524 6.2166C46.0515 6.2166 44.67 6.78761 43.6322 7.82476L41.2509 10.2048C40.6948 10.7606 40.2726 11.4137 39.9958 12.1452L39.9794 12.1869L39.9364 12.1995C39.0718 12.4661 38.3097 12.9234 37.6714 13.5613L35.29 15.9413C33.1451 18.0864 33.1451 21.5756 35.29 23.7194C36.3278 24.7565 37.7093 25.3275 39.1805 25.3275C40.6518 25.3275 42.0346 24.7565 43.0723 23.7194L45.4536 21.3393C46.0072 20.786 46.4269 20.1354 46.7037 19.4053L46.7201 19.3636L46.7631 19.3497C47.6125 19.0894 48.3961 18.617 49.0319 17.9828L51.4132 15.6028C52.451 14.5656 53.0223 13.1849 53.0223 11.7131H53.0248ZM21.7883 21.9305C21.5836 22.7289 21.5166 24.0895 20.4776 24.1287C20.3916 24.5898 20.7974 24.7628 21.1652 24.615C21.5305 24.447 21.7036 24.7477 21.8262 25.0471C22.39 25.1292 23.2242 24.8588 23.2558 24.1918C22.414 23.7067 22.1536 22.7845 21.7871 21.9305H21.7883Z" fill="#F8F7FF"/>
<path d="M259.381 26.4797C257.725 26.4797 256.35 26.1364 255.255 25.4497C254.16 24.7541 253.481 23.7964 253.219 22.5767L254.386 22.3599C254.63 23.2634 255.2 23.9861 256.096 24.5282C257.001 25.0703 258.105 25.3413 259.408 25.3413C260.738 25.3413 261.792 25.0567 262.57 24.4876C263.358 23.9184 263.751 23.1459 263.751 22.1702C263.751 21.6371 263.634 21.2035 263.398 20.8692C263.163 20.5259 262.702 20.2142 262.014 19.9341C261.335 19.654 260.331 19.3333 259.001 18.9719C257.607 18.5925 256.521 18.2266 255.743 17.8742C254.974 17.5128 254.431 17.1108 254.115 16.6681C253.807 16.2164 253.653 15.6653 253.653 15.0148C253.653 14.2378 253.884 13.5512 254.345 12.9549C254.807 12.3586 255.445 11.8933 256.259 11.559C257.073 11.2248 258.014 11.0576 259.082 11.0576C260.159 11.0576 261.127 11.2383 261.987 11.5997C262.855 11.952 263.552 12.4489 264.077 13.0904C264.611 13.7228 264.918 14.4546 265 15.2858L263.833 15.5026C263.661 14.4817 263.136 13.6777 262.258 13.0904C261.39 12.4941 260.304 12.196 259.001 12.196C257.779 12.1779 256.779 12.4264 256.001 12.9413C255.232 13.4563 254.847 14.1294 254.847 14.9606C254.847 15.4213 254.979 15.8189 255.241 16.1531C255.503 16.4784 255.96 16.7765 256.612 17.0476C257.263 17.3186 258.168 17.5987 259.326 17.8878C260.792 18.2582 261.932 18.6331 262.747 19.0126C263.57 19.392 264.145 19.8347 264.471 20.3407C264.805 20.8466 264.973 21.4745 264.973 22.2244C264.973 23.5525 264.475 24.596 263.48 25.3549C262.484 26.1047 261.118 26.4797 259.381 26.4797Z" fill="#F8F7FF"/>
<path d="M245.291 26.5068C243.834 26.5068 242.613 26.1815 241.626 25.531C240.64 24.8806 239.893 23.9771 239.387 22.8207C238.88 21.6552 238.613 20.309 238.586 18.7822C238.613 17.2192 238.88 15.8595 239.387 14.7031C239.902 13.5466 240.654 12.6522 241.64 12.0198C242.626 11.3783 243.843 11.0576 245.291 11.0576C246.648 11.0576 247.856 11.3829 248.915 12.0334C249.983 12.6748 250.738 13.5602 251.181 14.6895L250.096 15.1503C249.688 14.2107 249.06 13.4834 248.209 12.9684C247.368 12.4535 246.395 12.196 245.291 12.196C244.06 12.196 243.042 12.476 242.237 13.0362C241.432 13.5873 240.83 14.3598 240.432 15.3536C240.034 16.3383 239.826 17.4812 239.807 18.7822C239.835 20.7698 240.305 22.3644 241.219 23.566C242.133 24.7676 243.49 25.3684 245.291 25.3684C246.368 25.3684 247.322 25.12 248.155 24.6231C248.987 24.1262 249.625 23.3989 250.068 22.4412L251.181 22.9291C250.575 24.1036 249.774 24.9935 248.779 25.5988C247.784 26.2041 246.621 26.5068 245.291 26.5068Z" fill="#F8F7FF"/>
<path d="M229.703 26.5068C228.255 26.5068 227.034 26.177 226.038 25.5175C225.043 24.858 224.287 23.9455 223.772 22.78C223.256 21.6145 222.998 20.2729 222.998 18.7551C222.998 17.2192 223.26 15.8731 223.785 14.7166C224.31 13.5602 225.07 12.6613 226.065 12.0198C227.07 11.3783 228.282 11.0576 229.703 11.0576C231.16 11.0576 232.386 11.3874 233.381 12.0469C234.377 12.6974 235.128 13.6009 235.634 14.7573C236.15 15.9137 236.408 17.2463 236.408 18.7551C236.408 20.3 236.15 21.6552 235.634 22.8207C235.119 23.9771 234.358 24.8806 233.354 25.531C232.359 26.1815 231.142 26.5068 229.703 26.5068ZM229.703 25.3684C231.549 25.3684 232.924 24.7586 233.829 23.5389C234.734 22.3102 235.186 20.7156 235.186 18.7551C235.186 16.7585 234.729 15.1684 233.816 13.9848C232.911 12.7923 231.54 12.196 229.703 12.196C228.463 12.196 227.436 12.476 226.622 13.0362C225.817 13.5963 225.215 14.3688 224.817 15.3536C224.419 16.3383 224.22 17.4722 224.22 18.7551C224.22 20.7427 224.681 22.3418 225.604 23.5525C226.536 24.7631 227.902 25.3684 229.703 25.3684Z" fill="#F8F7FF"/>
<path d="M206.104 26.1002V6.58545H211.832C212.067 6.58545 212.443 6.58997 212.959 6.599C213.475 6.60804 213.968 6.64869 214.438 6.72097C215.877 6.92876 217.067 7.47987 218.008 8.3743C218.958 9.26872 219.664 10.4071 220.125 11.7894C220.587 13.1626 220.817 14.6805 220.817 16.3428C220.817 18.0142 220.587 19.5411 220.125 20.9234C219.664 22.2966 218.958 23.4305 218.008 24.3249C217.067 25.2103 215.877 25.7569 214.438 25.9647C213.977 26.0279 213.479 26.0686 212.945 26.0866C212.42 26.0957 212.049 26.1002 211.832 26.1002H206.104ZM207.326 24.9618H211.832C212.267 24.9618 212.701 24.9483 213.135 24.9212C213.579 24.8941 213.95 24.8534 214.248 24.7992C215.533 24.5824 216.565 24.09 217.343 23.322C218.13 22.5451 218.7 21.5603 219.053 20.3677C219.415 19.1661 219.596 17.8245 219.596 16.3428C219.596 14.8611 219.415 13.524 219.053 12.3315C218.7 11.1299 218.13 10.1451 217.343 9.37714C216.565 8.60016 215.533 8.10326 214.248 7.88643C213.95 7.83222 213.574 7.79157 213.122 7.76446C212.669 7.73736 212.239 7.72381 211.832 7.72381H207.326V24.9618Z" fill="#F8F7FF"/>
<path d="M74.4307 7.07812V26.2295H87.6303V23.3378H77.4275V7.07812H74.4307Z" fill="#F8F7FF"/>
<path d="M141.484 7.07812C138.889 7.07812 136.687 8.01295 135.116 9.78281C133.559 11.5362 132.737 13.9971 132.737 16.8989C132.737 22.8653 136.182 26.7209 141.511 26.7209C145.266 26.7209 148.173 24.7577 149.289 21.4707L149.559 20.6735L146.585 19.5442L146.311 20.4323C145.646 22.5811 143.941 23.7648 141.509 23.7648C138.036 23.7648 135.878 21.1346 135.878 16.9001C135.878 12.6656 138.056 10.0355 141.562 10.0355C143.993 10.0355 145.393 10.988 146.106 13.1229L146.417 14.054L149.313 12.6959L149.048 11.9506C147.915 8.7646 145.3 7.07939 141.483 7.07939L141.484 7.07812Z" fill="#F8F7FF"/>
<path d="M94.6655 11.6235C91.7887 11.6235 89.6374 12.9715 88.764 15.3212C88.7084 15.4715 88.5403 15.925 88.5403 15.925L91.0063 17.5193L91.3413 16.6463C91.9126 15.1582 92.9693 14.4647 94.6655 14.4647C96.3618 14.4647 97.3325 15.287 97.3148 16.9066C97.3148 16.9723 97.3097 17.1706 97.3097 17.1706C97.3097 17.1706 95.0649 17.5344 94.1397 17.7302C90.1923 18.564 88.5391 20.0698 88.5391 22.5332C88.5391 23.8458 89.2684 25.267 90.5993 26.0641C91.3982 26.5416 92.4409 26.7223 93.5924 26.7223C94.3495 26.7223 95.0852 26.6098 95.7664 26.4026C97.3148 25.8885 97.7471 24.8779 97.7471 24.8779V26.1993H100.312V16.7525C100.312 13.5412 98.2008 11.6235 94.6655 11.6235ZM97.3237 21.7045C97.3237 22.6974 96.2417 24.0959 93.7213 24.0959C93.0097 24.0959 92.5054 23.9077 92.1692 23.6272C91.7192 23.252 91.5713 22.7126 91.6333 22.2364C91.6598 22.0292 91.7849 21.5832 92.2488 21.1967C92.7228 20.8013 93.5608 20.5183 94.8551 20.2366C95.9194 20.0054 97.3249 19.7502 97.3249 19.7502V21.7058L97.3237 21.7045Z" fill="#F8F7FF"/>
<path d="M109.793 11.6221C109.437 11.6221 109.089 11.6473 108.752 11.6941C106.455 12.039 105.783 13.205 105.783 13.205L105.785 12.0288H102.911V26.2016H105.908V18.3465C105.908 15.6772 107.856 14.4619 109.666 14.4619C111.622 14.4619 112.573 15.513 112.573 17.677V26.2016H115.57V17.2651C115.57 13.7835 113.357 11.6221 109.795 11.6221H109.793Z" fill="#F8F7FF"/>
<path d="M193.596 11.6221C193.24 11.6221 192.892 11.6473 192.555 11.6941C190.258 12.039 189.586 13.205 189.586 13.205V12.0276H186.714V26.2016H189.711V18.3465C189.711 15.6772 191.659 14.4619 193.469 14.4619C195.425 14.4619 196.376 15.513 196.376 17.677V26.2016H199.373V17.2651C199.373 13.7835 197.159 11.6221 193.597 11.6221H193.596Z" fill="#F8F7FF"/>
<path d="M128.076 12.0288V13.4879C128.076 13.4879 127.342 11.6221 124.001 11.6221C119.85 11.6221 117.271 14.4847 117.271 19.0944C117.271 21.6955 118.103 23.7432 119.571 25.0368C120.712 26.0424 122.236 26.5578 124.051 26.5932C125.314 26.6172 126.132 26.2736 126.643 25.9489C127.623 25.3249 127.987 24.7324 127.987 24.7324C127.987 24.7324 127.946 25.196 127.87 25.8239C127.816 26.2786 127.713 26.5983 127.713 26.5983C127.257 28.2216 125.922 29.1602 123.976 29.1602C122.029 29.1602 120.85 28.5197 120.616 27.2577L117.702 28.1268C118.206 30.5523 120.483 32 123.795 32C126.046 32 127.81 31.3886 129.04 30.1809C130.28 28.9631 130.91 27.2084 130.91 24.9648V12.0276H128.076V12.0288ZM127.886 19.2232C127.886 22.058 126.501 23.7508 124.18 23.7508C121.694 23.7508 120.268 22.053 120.268 19.0944C120.268 16.1358 121.694 14.4632 124.18 14.4632C126.445 14.4632 127.865 16.1484 127.886 18.8619V19.2232Z" fill="#F8F7FF"/>
<path d="M158.192 11.6221C157.863 11.6221 157.543 11.6436 157.233 11.684C154.973 12.0365 154.308 13.1873 154.308 13.1873V12.8501H154.306V7.07812H151.31V26.2029H154.306V18.3478C154.306 15.6609 156.254 14.438 158.064 14.438C160.021 14.438 160.971 15.489 160.971 17.653V26.2029H163.968V17.2412C163.968 13.8291 161.701 11.6234 158.193 11.6234L158.192 11.6221Z" fill="#F8F7FF"/>
<path d="M182.448 10.9654C183.521 10.9654 184.39 10.096 184.39 9.02369C184.39 7.95134 183.521 7.08203 182.448 7.08203C181.375 7.08203 180.505 7.95134 180.505 9.02369C180.505 10.096 181.375 10.9654 182.448 10.9654Z" fill="#F8F7FF"/>
<path d="M180.958 12.0215V19.2146C180.105 18.5122 179.112 17.9829 177.987 17.6658V16.7525C177.987 13.5412 175.877 11.6235 172.341 11.6235C169.465 11.6235 167.313 12.9715 166.44 15.3212C166.384 15.4715 166.216 15.925 166.216 15.925L168.682 17.5193L169.017 16.6463C169.588 15.1582 170.645 14.4647 172.341 14.4647C174.038 14.4647 175.008 15.287 174.991 16.9066C174.991 16.9167 174.991 17.0518 174.991 17.2679C173.722 17.2325 172.541 17.355 171.481 17.6039C170.083 17.9197 167.486 18.7219 166.559 20.8076C166.552 20.8215 166.416 21.1815 166.416 21.1815C166.282 21.5959 166.215 22.0456 166.215 22.5332C166.215 23.8458 166.944 25.267 168.275 26.0641C169.074 26.5416 170.117 26.7223 171.268 26.7223C172.011 26.7223 172.734 26.6136 173.406 26.414C174.984 25.9037 175.423 24.8779 175.423 24.8779V26.2005H177.987V21.8713C177.267 21.4215 176.185 21.1562 174.998 21.1588C174.998 21.4935 174.998 21.7058 174.998 21.7058C174.998 22.6987 173.916 24.0972 171.396 24.0972C170.684 24.0972 170.18 23.9089 169.844 23.6285C169.394 23.2533 169.246 22.7139 169.308 22.2376C169.334 22.0304 169.459 21.5845 169.923 21.1979L169.918 21.184C170.983 20.3136 173.074 19.9662 174.996 20.042V20.0458C176.631 20.1052 177.855 20.4261 178.728 21.0274C178.966 21.1777 179.189 21.3457 179.396 21.5302C180.273 22.3172 180.625 23.2861 180.777 23.8521C181.024 24.7755 180.958 26.198 180.958 26.198H183.939V12.024H180.958V12.0215Z" fill="#F8F7FF"/>
</svg>
