<svg width="20" height="20" viewBox="0 0 20 20" fill="none" xmlns="http://www.w3.org/2000/svg">
<path d="M5.00759 0.817618C6.88465 -0.41484 9.23155 0.0628444 10.115 0.243399C10.7573 0.375216 11.4477 0.731373 11.4109 1.03344C11.4032 1.09614 11.3554 1.24318 11.0867 1.23168C9.03012 1.1459 7.7016 2.16786 7.34451 2.48266C7.32546 2.49931 7.31381 2.52088 7.3113 2.54516L7.29372 2.69652C7.29128 2.71306 7.29321 2.7311 7.29958 2.74633L7.75857 3.83422C7.86975 4.10032 7.92745 4.38304 7.92751 4.67211V5.46117L8.14333 5.90941C8.29424 6.10557 10.0946 8.42726 11.7039 10.2493C12.9862 11.7008 16.2817 15.4374 17.5652 16.8928L17.7771 17.133C18.0023 17.3877 18.1267 17.7174 18.1267 18.0579H18.1287V18.2717C18.1286 18.5839 18.0263 18.8866 17.8396 19.1233L17.826 19.1418C17.5662 19.4644 17.1731 19.6457 16.7586 19.6457C16.669 19.6457 16.5795 19.6369 16.49 19.6204L16.2556 19.5754C15.9101 19.5088 15.6042 19.3172 15.3943 19.0344C14.7621 18.1819 13.37 16.2859 12.1287 14.595C11.412 13.6183 10.7447 12.7125 10.3045 12.1135C10.0408 11.7551 9.07761 10.4708 8.81521 10.1291C7.43822 8.32817 6.46017 7.30145 6.44997 7.29125C6.3397 7.15671 6.02021 6.82776 5.73122 6.7893C5.27172 6.8098 4.76562 6.52573 4.74392 6.51293C4.54218 6.41082 4.30742 6.32574 4.23025 6.32543C4.07041 6.42779 4.07151 6.49009 4.0779 6.70238C4.0779 6.77148 4.0818 6.84771 4.0779 6.93481C4.06621 7.23602 3.81888 7.44038 3.78982 7.4641C3.78982 7.4641 3.44518 7.76118 3.01638 8.09008C2.49434 8.48934 2.11576 8.20249 2.10036 8.18969C2.06534 8.15989 1.44607 7.61953 1.10232 7.19262C0.76325 6.77026 0.624437 6.5874 0.234154 6.03832C-0.215729 5.40593 0.118086 5.01092 0.134544 4.99145L0.150169 4.97582L0.938255 4.29711C1.04491 4.21236 1.56639 3.82711 1.86697 4.05199C2.11527 4.22229 2.35677 4.07109 2.36697 4.06469C2.37954 4.05669 2.55319 3.93399 2.49978 3.59594C2.41663 3.07248 2.75912 2.66137 2.77322 2.64477L2.79568 2.62328C2.81675 2.60711 3.78758 1.83545 4.99392 0.827384L5.00759 0.817618Z" fill="#D9D9D9"/>
<path fill-rule="evenodd" clip-rule="evenodd" d="M10.075 12.7327C9.28682 13.7142 8.80886 14.3701 8.3904 14.9895C7.13493 16.8494 6.10387 18.3231 6.08962 18.343C6.08452 18.3533 5.28654 19.5715 4.07204 19.5715C3.88793 19.5715 3.69492 19.5436 3.49294 19.4797C2.81854 19.2646 2.36408 18.8852 2.14138 18.3528C1.85247 17.6643 2.0584 16.9763 2.1531 16.7893C2.4961 16.1135 3.16896 15.4949 4.02126 14.7141C4.89025 13.918 5.84342 12.9897 5.85232 12.9807C5.87198 12.9639 6.86966 12.1307 8.36306 10.4221L10.075 12.7327ZM3.37576 17.1936C3.15078 17.1937 2.95998 17.2716 2.86794 17.425C2.78734 17.5594 2.7893 17.7379 2.8738 17.926C2.96606 18.1332 3.14358 18.324 3.3738 18.4621C3.82287 18.732 4.34965 18.7127 4.52517 18.4211H4.52712C4.70239 18.1293 4.4704 17.6541 4.02126 17.384C3.80889 17.2561 3.57793 17.1936 3.37576 17.1936Z" fill="#D9D9D9"/>
<path d="M15.6492 0.187735C15.8079 0.127605 15.9894 0.174691 16.0994 0.303946L16.2674 0.502188C16.394 0.653227 16.3948 0.87268 16.2693 1.02367L14.6023 3.03246C14.5577 3.08618 14.5334 3.15553 14.5359 3.22582L14.5496 3.71508C14.5521 3.79698 14.5893 3.87417 14.6521 3.92797L15.6277 4.75316C15.6879 4.80293 15.7655 4.82726 15.8435 4.81957L16.4539 4.75805C16.5282 4.75035 16.5977 4.71506 16.6463 4.65746L18.3611 2.62816C18.434 2.54138 18.5398 2.4898 18.6521 2.48461C18.7647 2.47561 18.8765 2.5234 18.9558 2.60277L19.2283 2.87524L19.2293 2.87719C19.3291 2.97698 19.3703 3.12497 19.3357 3.26195L18.8572 5.15551C18.8301 5.25256 18.2199 7.33205 16.2976 7.81274C15.5927 7.98927 15.147 8.00339 14.822 8.01488C14.295 8.03278 14.0979 8.03921 13.4646 8.74438C13.1178 9.13213 12.7196 9.53391 12.2654 10.0637L10.3787 7.84594C10.5335 7.66294 10.6469 7.57145 10.826 7.32445C11.1765 6.85616 11.4063 6.46701 11.5369 6.22387C11.6431 6.02797 11.6919 5.80898 11.6804 5.59008C11.6497 5.03321 11.6124 4.00527 11.7019 3.38207C11.8236 2.53101 12.5291 1.66235 13.5437 1.11449C14.2616 0.725393 15.255 0.337495 15.6492 0.187735Z" fill="#D9D9D9"/>
</svg>
