<svg width="16" height="21" viewBox="0 0 16 21" fill="none" xmlns="http://www.w3.org/2000/svg">
<path d="M7.01562 15.3627C7.40182 15.2246 7.81576 15.1793 8.22266 15.2299C8.62963 15.2807 9.01997 15.4261 9.36035 15.6547C9.82468 15.9668 10.1768 16.42 10.3652 16.9467C10.5536 17.4733 10.5691 18.0468 10.4082 18.5824C10.2471 19.1179 9.91815 19.5887 9.4707 19.9242C9.02293 20.2597 8.47849 20.4433 7.91895 20.4477C7.50899 20.4508 7.10282 20.358 6.73535 20.1762C6.36801 19.9942 6.04774 19.7276 5.80176 19.3998C5.5559 19.0718 5.39008 18.69 5.31836 18.2865C5.24677 17.8829 5.2717 17.4672 5.38965 17.0746C5.50773 16.6821 5.71677 16.322 5.99902 16.0248C6.28131 15.7277 6.62975 15.5008 7.01562 15.3627Z" fill="#D9D9D9"/>
<path d="M6.08105 6.26993L4.57227 8.50919C4.84068 8.81645 5.03291 9.18282 5.13379 9.57755H9.14453V10.8793H5.13379C5.03288 11.2738 4.84052 11.6396 4.57227 11.9467L6.06738 14.1869L4.9834 14.9164L3.47461 12.6762C3.19824 12.7762 2.90627 12.8291 2.6123 12.8324C1.91977 12.8322 1.25541 12.5579 0.765625 12.0697C0.275779 11.5814 6.09077e-05 10.9185 0 10.2279C9.9993e-05 9.53749 0.275989 8.87541 0.765625 8.38712C1.25542 7.89882 1.91961 7.62365 2.6123 7.62345C2.9062 7.62675 3.19821 7.6798 3.47461 7.7797L4.9834 5.54044L6.08105 6.26993Z" fill="#D9D9D9"/>
<path d="M12.3486 7.78556C12.6462 7.67096 12.965 7.6089 13.29 7.6088C13.9848 7.6089 14.6513 7.88538 15.1426 8.37638C15.6336 8.86747 15.9102 9.53349 15.9102 10.2279C15.9101 10.9224 15.6337 11.5894 15.1426 12.0805C14.6513 12.5713 13.9846 12.847 13.29 12.8471C12.5955 12.847 11.9287 12.5713 11.4375 12.0805C10.9463 11.5894 10.6701 10.9224 10.6699 10.2279C10.67 9.5969 10.8995 8.9902 11.3096 8.51602L9.79883 6.30606L10.8457 5.58731L12.3486 7.78556Z" fill="#D9D9D9"/>
<path d="M7.01562 0.153719C7.40172 0.0156593 7.81576 -0.0307298 8.22266 0.0199302C8.62963 0.0707075 9.01997 0.217083 9.36035 0.445711C9.82449 0.757709 10.1768 1.21035 10.3652 1.73673C10.5537 2.2635 10.5693 2.83772 10.4082 3.37345C10.2471 3.90905 9.91824 4.37969 9.4707 4.71524C9.02293 5.05068 8.47849 5.23428 7.91895 5.23868C7.50899 5.24188 7.10282 5.14808 6.73535 4.96622C6.36811 4.78425 6.04774 4.51866 5.80176 4.19083C5.55591 3.86289 5.39018 3.48106 5.31836 3.07755C5.24677 2.67382 5.2717 2.25827 5.38965 1.86563C5.50773 1.47297 5.71668 1.11316 5.99902 0.815829C6.28131 0.518727 6.62975 0.291862 7.01562 0.153719Z" fill="#D9D9D9"/>
</svg>
